<svg width="32" height="32" viewBox="0 0 32 32" fill="none" xmlns="http://www.w3.org/2000/svg">
<path d="M26.666 9.33335H25.7327C26.038 8.71069 26.198 8.02669 26.2007 7.33335C26.2007 6.09568 25.709 4.90869 24.8338 4.03352C23.9587 3.15835 22.7717 2.66669 21.534 2.66669C19.2447 2.66669 17.2473 4.26669 15.7593 5.97469C13.866 3.78935 11.9313 2.66669 9.99935 2.66669C8.76167 2.66669 7.57469 3.15835 6.69952 4.03352C5.82435 4.90869 5.33268 6.09568 5.33268 7.33335C5.33668 8.02669 5.49668 8.71069 5.80068 9.33335H5.33268C4.62544 9.33335 3.94716 9.61431 3.44706 10.1144C2.94697 10.6145 2.66602 11.2928 2.66602 12V14.6667C2.66602 15.0203 2.80649 15.3594 3.05654 15.6095C3.30659 15.8595 3.64573 16 3.99935 16H27.9993C28.353 16 28.6921 15.8595 28.9422 15.6095C29.1922 15.3594 29.3327 15.0203 29.3327 14.6667V12C29.3327 11.2928 29.0517 10.6145 28.5516 10.1144C28.0515 9.61431 27.3733 9.33335 26.666 9.33335ZM13.41 9.33335H9.99935C9.46892 9.33335 8.96021 9.12264 8.58514 8.74757C8.21006 8.37249 7.99935 7.86379 7.99935 7.33335C7.99935 6.80292 8.21006 6.29421 8.58514 5.91914C8.96021 5.54407 9.46892 5.33335 9.99935 5.33335C11.1993 5.33335 12.666 6.33869 14.122 8.16269C13.83 8.61202 13.5993 9.00935 13.41 9.33335ZM21.5434 9.33335H16.554C17.798 7.50935 19.7154 5.33335 21.5394 5.33335C22.0698 5.33335 22.5785 5.54407 22.9536 5.91914C23.3286 6.29421 23.5394 6.80292 23.5394 7.33335C23.5394 7.86379 23.3286 8.37249 22.9536 8.74757C22.5785 9.12264 22.0698 9.33335 21.5394 9.33335H21.5434ZM17.3327 18.6667H14.666V29.3334H17.3327V18.6667ZM11.9993 18.6667H5.33268V26.6667C5.33268 27.3739 5.61363 28.0522 6.11373 28.5523C6.61383 29.0524 7.29211 29.3334 7.99935 29.3334H11.9993V18.6667ZM19.9993 18.6667V29.3334H23.9993C24.7066 29.3334 25.3849 29.0524 25.885 28.5523C26.3851 28.0522 26.666 27.3739 26.666 26.6667V18.6667H19.9993Z" fill="white"/>
</svg>
