<svg width="81" height="81" viewBox="0 0 81 81" fill="none" xmlns="http://www.w3.org/2000/svg">
<rect width="81" height="81" rx="40.5" fill="#181921"/>
<path d="M48.414 67.2015C49.0337 67.8346 49.9287 68.6787 51.0991 69.5932C53.2335 71.2814 54.3351 72.1256 55.5056 71.9849C56.0564 71.9145 56.6072 71.7035 58.8793 69.4525C61.0137 67.3422 62.0464 66.287 63.0792 64.8098C64.5939 62.6291 65.2824 60.8002 66.1086 58.6899C67.0725 56.2278 67.0725 55.4541 66.9348 54.7506C66.6594 53.2031 65.489 52.1479 64.6628 51.3741C63.4235 50.1783 62.1153 49.6155 61.2891 49.3341C61.771 48.49 62.0465 47.6459 62.253 46.9425C64.112 39.9081 57.7089 33.1551 56.6761 32.0999C57.2269 31.1151 58.1219 29.2158 58.1908 26.6834C58.3285 24.0104 57.5023 22.0407 56.9514 20.8449C53.9909 14.0919 47.3124 11.4892 46.4862 11.2078C45.0403 10.645 41.3223 9.37887 36.9159 10.3637C33.1979 11.2078 30.3751 13.6698 24.7981 18.5939C21.5622 21.478 22.1818 21.4077 19.5655 23.5883C18.0508 24.7842 16.6737 25.769 15.5721 27.8793C15.2967 28.442 14.9524 29.2158 14.6082 30.5523C13.8508 33.6475 13.8509 37.1647 14.3329 39.8377C15.2279 44.2694 18.0508 48.2087 22.6638 52.4293C31.2701 60.2375 41.047 64.6691 48.414 67.2015Z" fill="#FF5321"/>
<path d="M55.843 72C53.2044 72 49.316 68.2118 48.3439 67.2475C46.608 67.0409 36.262 65.4567 24.5273 54.9186C17.0282 48.1687 12.9314 41.0055 13.0009 34.7377C13.0703 30.7429 14.8062 27.1612 18.0697 24.4751C19.7361 23.0286 21.4026 21.5822 22.9302 20.1358C30.221 13.4548 37.0952 7.11811 47.1634 11.3885C53.5516 14.1435 57.7872 18.6894 58.8982 23.9929C59.4537 26.8169 59.1065 29.6408 57.8566 32.2581C65.7029 41.0055 63.6199 47.0666 62.6478 48.9952C64.3142 49.8906 68.6192 52.5768 67.9249 56.5027C66.9528 61.1175 59.037 72 55.843 72ZM40.7059 11.2507C34.4567 11.2507 29.3878 15.8655 23.8329 21.0312C22.2359 22.4776 20.6388 23.9929 18.9029 25.4393C15.9172 27.9878 14.3896 31.0872 14.3202 34.7377C14.2507 40.6611 18.2086 47.411 25.43 53.9543C37.7202 64.9746 48.6216 65.9389 48.7605 65.9389C48.8994 65.9389 49.0382 66.0077 49.1771 66.1455C50.427 67.3853 53.9682 70.6225 55.9124 70.6225C57.9955 70.6225 65.7029 60.7042 66.6056 56.2272C67.2999 52.439 61.5367 49.8217 61.4673 49.8217C61.259 49.7528 61.1201 49.6151 61.1201 49.4084C61.0507 49.2018 61.1202 48.9952 61.259 48.8574C61.4673 48.5819 65.4946 42.8651 57.3011 33.429C56.6762 34.3933 55.9819 35.3576 55.0792 36.253C45.983 45.6891 39.3172 50.3038 34.8039 50.3038C33.9012 50.3038 33.1374 50.0972 32.443 49.7528C30.1516 48.6508 28.624 46.2401 27.3047 44.1738C25.2911 41.0055 23.9718 39.1458 21.4026 40.0412C21.0555 40.1789 20.7083 39.9723 20.5694 39.6279C20.4306 39.2836 20.6388 38.9392 20.986 38.8014C24.6661 37.4927 26.6103 40.5922 28.4851 43.485C29.8044 45.5513 31.1237 47.6176 33.0679 48.5819C35.7065 49.8217 41.4697 48.5819 54.246 35.2887C57.3706 32.0515 58.6899 28.0566 57.8566 24.1307C56.8845 19.3093 52.8572 15.0389 46.8857 12.4905C44.5249 11.664 42.5807 11.2507 40.7059 11.2507Z" fill="#21050C"/>
<path d="M43 46.409C43 46.409 35.4948 53.1345 30.9484 51.8328C26.4021 50.5311 26.1134 40.1897 22 39.0326C22 39.0326 23.2268 38.0201 30.1546 47.2768C34.3402 52.9176 43 46.409 43 46.409Z" fill="#21050C"/>
<path d="M53.9174 70.999C54.0588 71.0689 51.7955 67.2945 52.8565 64.4287C53.9174 61.5629 60 51.6374 60 51.6374C60 51.6374 46.2788 65.6169 36.0231 60.5843C25.6968 55.5516 17.3508 45.4863 15.5826 40.1741C13.8851 34.792 13.3901 28.7807 18.6947 24.0976C24.07 19.4144 36.7304 9.20932 43.874 10.5374C43.874 10.5374 37.6499 8.16087 31.2136 13.4032C24.7773 18.6456 16.5728 26.0547 16.5728 26.0547C16.5728 26.0547 9.64139 31.7863 15.0875 42.8302C20.6043 53.8741 34.8914 64.0792 48.6835 67.0149C48.7542 66.8751 51.8663 70.37 53.9174 70.999Z" fill="#21050C"/>
</svg>
