<svg width="50" height="50" viewBox="0 0 50 50" fill="none" xmlns="http://www.w3.org/2000/svg">
<path d="M31.818 25.286C31.7865 22.1191 34.4005 20.6002 34.5173 20.5235C33.0482 18.3755 30.7595 18.0807 29.9449 18.0472C27.9986 17.8495 26.1453 19.1936 25.158 19.1936C24.1727 19.1936 22.6472 18.0762 21.0332 18.1046C18.9101 18.1361 16.9532 19.3394 15.8606 21.24C13.6557 25.0649 15.2966 30.7335 17.4451 33.8379C18.4955 35.3552 19.7481 37.0627 21.3915 37.0002C22.9754 36.9376 23.573 35.9757 25.4878 35.9757C27.4025 35.9757 27.9402 37.0002 29.6156 36.9681C31.319 36.9371 32.3988 35.4218 33.4405 33.8983C34.6464 32.1355 35.1429 30.4286 35.1724 30.3422C35.1353 30.3249 31.852 29.0672 31.818 25.286Z" fill="#BFBFCB"/>
<path d="M28.6698 15.9916C29.5413 14.9336 30.1318 13.4635 29.9712 12C28.7135 12.0508 27.191 12.8359 26.288 13.8929C25.479 14.831 24.7717 16.3245 24.9612 17.7616C26.3643 17.8703 27.7953 17.0476 28.6698 15.9916Z" fill="#BFBFCB"/>
</svg>
