<svg width="72" height="72" viewBox="0 0 72 72" fill="none" xmlns="http://www.w3.org/2000/svg">
<g filter="url(#filter0_dii_59921_46465)">
<path fill-rule="evenodd" clip-rule="evenodd" d="M69.6505 21.6731C69.6505 20.8658 69.6508 20.0585 69.6459 19.2512C69.6418 18.5711 69.634 17.8912 69.6155 17.2114C69.5756 15.7299 69.4882 14.2356 69.2247 12.7706C68.9575 11.2844 68.5211 9.9012 67.8334 8.55086C67.1574 7.22363 66.2743 6.00912 65.2206 4.9562C64.1672 3.90327 62.9524 3.02076 61.6247 2.34514C60.2729 1.6573 58.8883 1.22108 57.4004 0.95395C55.9352 0.690864 54.4406 0.603636 52.959 0.563612C52.2788 0.545209 51.5985 0.537452 50.9181 0.533243C50.1104 0.528292 49.3026 0.528704 48.4949 0.528704L39.1163 0.495117H32.1017L22.889 0.528704C22.0797 0.528704 21.2704 0.528292 20.4611 0.533243C19.7793 0.537452 19.0978 0.545209 18.4163 0.563612C16.9313 0.603636 15.4332 0.690947 13.9645 0.954363C12.4747 1.22141 11.088 1.65747 9.73445 2.34481C8.40392 3.02052 7.18645 3.90311 6.13081 4.9562C5.07533 6.00904 4.19059 7.2233 3.51332 8.55028C2.82375 9.90128 2.38654 11.2853 2.11867 12.7723C1.85492 14.2368 1.76753 15.7305 1.72734 17.2114C1.70902 17.8913 1.7011 18.5712 1.69697 19.2512C1.69202 20.0586 1.65051 21.0615 1.65051 21.8688L1.65076 30.9539L1.65051 38.0435L1.69243 47.3216C1.69243 48.13 1.6921 48.9384 1.69697 49.7468C1.7011 50.4278 1.70902 51.1086 1.72742 51.7894C1.76753 53.2728 1.85509 54.7692 2.11908 56.2363C2.38687 57.7244 2.824 59.1096 3.51299 60.4617C4.19034 61.7908 5.07524 63.0069 6.13081 64.0613C7.18637 65.1157 8.40351 65.9993 9.73379 66.676C11.0882 67.3647 12.4756 67.8015 13.9663 68.069C15.4343 68.3325 16.9318 68.4199 18.4163 68.4599C19.0978 68.4783 19.7794 68.4861 20.4612 68.4902C21.2705 68.4952 22.0797 68.4949 22.889 68.4949L32.185 68.4951H39.2169L48.4949 68.4948C49.3026 68.4948 50.1104 68.4952 50.9181 68.4902C51.5985 68.4861 52.2788 68.4783 52.959 68.4599C54.4411 68.4198 55.9363 68.3323 57.4022 68.0686C58.8891 67.8012 60.2731 67.3645 61.6241 66.6762C62.9521 65.9997 64.1671 65.1158 65.2206 64.0613C66.2741 63.007 67.1571 61.7911 67.8332 60.4622C68.5212 59.1095 68.9576 57.7237 69.225 56.2345C69.4883 54.7681 69.5756 53.2722 69.6156 51.7894C69.634 51.1086 69.6418 50.4277 69.6459 49.7468C69.6509 48.9384 69.6505 48.13 69.6505 47.3216C69.6505 47.3216 69.65 38.2073 69.65 38.0435V30.9465C69.65 30.8255 69.6505 21.6731 69.6505 21.6731Z" fill="#14141A"/>
</g>
<path d="M52.4783 32.5455L53.7233 19.9717H27.5343L19.8333 26.3696L17.5777 49.0202H43.8491L51.5154 42.5964L52.1049 36.1144H36.9577L36.4182 41.2601H32.8908L34.2188 27.7318H37.7467L37.2644 32.5455H52.4783Z" fill="white"/>
<defs>
<filter id="filter0_dii_59921_46465" x="2.72989e-05" y="-2.8491e-05" width="71.301" height="71.301" filterUnits="userSpaceOnUse" color-interpolation-filters="sRGB">
<feFlood flood-opacity="0" result="BackgroundImageFix"/>
<feColorMatrix in="SourceAlpha" type="matrix" values="0 0 0 0 0 0 0 0 0 0 0 0 0 0 0 0 0 0 127 0" result="hardAlpha"/>
<feOffset dy="1.15534"/>
<feGaussianBlur stdDeviation="0.825243"/>
<feColorMatrix type="matrix" values="0 0 0 0 0 0 0 0 0 0 0 0 0 0 0 0 0 0 0.25 0"/>
<feBlend mode="normal" in2="BackgroundImageFix" result="effect1_dropShadow_59921_46465"/>
<feBlend mode="normal" in="SourceGraphic" in2="effect1_dropShadow_59921_46465" result="shape"/>
<feColorMatrix in="SourceAlpha" type="matrix" values="0 0 0 0 0 0 0 0 0 0 0 0 0 0 0 0 0 0 127 0" result="hardAlpha"/>
<feOffset dy="0.330097"/>
<feGaussianBlur stdDeviation="0.0825243"/>
<feComposite in2="hardAlpha" operator="arithmetic" k2="-1" k3="1"/>
<feColorMatrix type="matrix" values="0 0 0 0 1 0 0 0 0 1 0 0 0 0 1 0 0 0 0.44 0"/>
<feBlend mode="normal" in2="shape" result="effect2_innerShadow_59921_46465"/>
<feColorMatrix in="SourceAlpha" type="matrix" values="0 0 0 0 0 0 0 0 0 0 0 0 0 0 0 0 0 0 127 0" result="hardAlpha"/>
<feOffset dy="-0.247573"/>
<feGaussianBlur stdDeviation="0.165049"/>
<feComposite in2="hardAlpha" operator="arithmetic" k2="-1" k3="1"/>
<feColorMatrix type="matrix" values="0 0 0 0 0 0 0 0 0 0 0 0 0 0 0 0 0 0 0.25 0"/>
<feBlend mode="normal" in2="effect2_innerShadow_59921_46465" result="effect3_innerShadow_59921_46465"/>
</filter>
</defs>
</svg>
